<?xml version="1.0" encoding="UTF-8" standalone="no"?>
<!DOCTYPE svg PUBLIC "-//W3C//DTD SVG 1.1//EN" "http://www.w3.org/Graphics/SVG/1.1/DTD/svg11.dtd">
<svg xmlns="http://www.w3.org/2000/svg" version="1.1" viewBox="0.00 0.00 680.00 680.00">
<path fill="#2e2c31" d="
  M 110.38 166.63
  C 105.72 171.87 100.28 178.23 92.59 173.51
  C 83.85 168.14 86.65 159.21 92.24 152.99
  C 112.59 130.35 138.79 111.90 167.72 103.21
  C 181.06 99.20 189.97 118.61 175.67 124.11
  Q 169.86 126.35 164.14 128.71
  Q 132.41 141.77 110.38 166.63
  Z"
/>
<path fill="#2e2c31" d="
  M 589.08 173.58
  C 583.63 176.81 577.92 174.13 574.29 169.72
  C 556.70 148.34 533.11 133.74 506.33 124.69
  C 500.64 122.77 497.65 115.05 500.26 109.41
  C 502.71 104.11 509.18 101.59 514.64 103.33
  C 544.21 112.77 569.78 130.23 589.99 153.64
  C 595.96 160.56 598.47 168.03 589.08 173.58
  Z"
/>
<path fill="#2e2c31" d="
  M 206.77 279.05
  Q 209.07 269.79 209.78 267.27
  C 221.09 227.68 250.94 194.69 288.55 178.86
  Q 314.78 167.83 345.74 168.98
  Q 362.91 169.62 374.99 172.91
  C 424.48 186.41 462.28 226.13 473.04 276.33
  Q 473.14 276.80 473.03 277.26
  Q 472.66 278.88 474.24 278.93
  Q 487.79 279.33 493.24 280.05
  Q 529.95 284.96 555.88 311.11
  Q 585.63 341.11 586.82 383.75
  Q 587.42 405.14 578.47 424.47
  C 572.04 438.35 560.11 451.39 545.02 455.63
  Q 540.15 457.00 530.85 457.00
  Q 340.03 457.00 149.22 457.01
  Q 140.28 457.01 135.42 455.67
  Q 126.91 453.32 120.41 447.83
  C 95.79 427.04 90.54 391.28 98.01 361.26
  C 103.41 339.61 113.87 322.43 129.84 307.47
  C 149.39 289.13 172.24 281.10 198.99 278.94
  Q 202.64 278.65 206.16 279.42
  Q 206.65 279.53 206.77 279.05
  Z
  M 159.93 322.14
  Q 159.46 322.20 159.30 322.31
  C 129.38 342.97 116.75 380.27 131.50 414.22
  Q 133.80 419.52 139.94 424.43
  C 143.01 426.89 145.96 427.00 149.75 427.00
  Q 340.93 427.00 532.11 427.00
  Q 536.53 427.00 538.78 426.16
  C 546.32 423.36 552.03 411.77 554.04 404.64
  Q 556.32 396.57 556.36 385.18
  C 556.45 358.58 541.94 334.09 519.23 320.50
  C 499.41 308.65 476.77 307.44 454.96 313.99
  Q 451.62 314.99 449.95 314.55
  C 446.49 313.64 445.02 309.55 445.33 306.21
  C 445.96 299.33 444.89 290.98 444.13 286.75
  Q 437.71 250.71 410.71 226.28
  C 359.66 180.11 279.80 194.66 247.38 255.16
  C 238.32 272.07 235.16 289.58 234.93 308.70
  C 234.87 313.85 231.78 315.50 226.92 314.20
  C 202.96 307.77 181.25 307.84 160.43 321.56
  Q 160.35 321.61 160.30 321.70
  Q 160.24 321.82 160.19 321.95
  Q 160.12 322.12 159.93 322.14
  Z"
/>
<path fill="#2e2c31" d="
  M 60.60 237.56
  Q 53.48 255.21 50.78 274.00
  C 50.06 279.00 50.04 284.70 49.71 290.03
  C 48.72 306.46 26.35 305.69 27.07 288.75
  Q 28.74 249.83 46.00 214.99
  Q 49.30 208.33 51.89 204.64
  Q 54.41 201.07 59.26 200.91
  Q 70.21 200.55 72.15 211.26
  Q 72.47 213.04 70.70 216.27
  Q 65.01 226.60 60.60 237.56
  Z"
/>
<path fill="#2e2c31" d="
  M 611.71 215.51
  C 608.50 208.18 614.11 200.57 622.10 200.91
  Q 629.95 201.23 634.06 209.21
  Q 651.12 242.28 654.89 277.39
  C 655.29 281.12 655.43 286.39 655.98 290.89
  C 656.11 291.97 655.78 293.80 655.23 294.76
  C 651.55 301.23 644.05 304.37 637.75 299.96
  C 633.77 297.17 633.32 293.74 633.09 288.61
  Q 631.60 254.97 616.33 224.90
  Q 612.60 217.55 611.71 215.51
  Z"
/>
<path fill="#2e2c31" d="
  M 553.44 550.78
  Q 554.37 550.76 555.08 549.32
  A 0.11 0.11 0.0 0 1 555.29 549.35
  Q 555.36 549.85 555.01 549.99
  Q 554.28 551.39 552.85 551.41
  Q 552.36 551.42 551.98 551.74
  C 535.90 565.22 513.95 568.84 495.33 558.79
  C 483.85 552.59 474.17 541.64 470.54 528.92
  C 468.25 520.88 468.98 512.68 468.98 504.45
  Q 468.98 502.98 467.51 502.98
  L 447.99 503.00
  A 0.97 0.97 0.0 0 0 447.02 504.02
  C 448.06 524.27 443.01 541.79 426.66 554.15
  C 416.93 561.50 403.33 565.89 390.84 564.34
  C 388.49 564.05 385.94 563.92 383.74 563.32
  Q 363.80 557.91 352.67 540.34
  C 344.96 528.16 345.90 517.30 346.00 504.01
  A 1.01 1.01 0.0 0 0 344.99 502.99
  L 324.76 503.01
  A 0.74 0.74 0.0 0 0 324.02 503.76
  Q 324.04 508.13 324.04 512.52
  C 324.04 531.47 315.22 547.41 298.93 557.15
  C 287.58 563.93 274.84 566.19 262.01 563.32
  C 249.32 560.48 237.39 552.07 230.36 541.15
  C 222.81 529.44 222.40 517.77 223.07 504.65
  Q 223.16 502.98 221.50 502.99
  L 202.02 503.00
  A 0.99 0.99 0.0 0 0 201.03 504.02
  C 201.44 520.38 200.29 533.09 189.21 545.93
  C 167.70 570.87 131.93 570.85 110.81 545.41
  Q 100.21 532.64 99.94 514.74
  C 99.80 505.32 98.71 495.31 102.35 487.72
  C 107.48 477.01 117.08 474.83 128.75 474.81
  Q 139.88 474.79 151.00 474.80
  Q 332.53 474.99 514.06 475.00
  C 522.09 475.00 536.14 474.56 547.24 475.11
  C 553.89 475.44 559.10 478.63 563.47 483.55
  C 569.58 490.43 569.18 496.74 569.25 507.25
  C 569.29 513.18 569.46 519.68 568.18 525.17
  Q 564.72 539.99 553.28 550.39
  Q 552.84 550.79 553.44 550.78
  Z
  M 172.80 503.00
  L 128.16 503.00
  A 1.27 1.27 0.0 0 0 126.89 504.27
  L 126.89 513.43
  A 23.65 23.31 -90.0 0 0 150.20 537.08
  L 150.76 537.08
  A 23.65 23.31 90.0 0 0 174.07 513.43
  L 174.07 504.27
  A 1.27 1.27 0.0 0 0 172.80 503.00
  Z
  M 295.78 503.00
  L 251.14 503.00
  A 1.23 1.23 0.0 0 0 249.91 504.23
  L 249.91 513.75
  A 23.35 23.03 90.0 0 0 272.94 537.10
  L 273.98 537.10
  A 23.35 23.03 -90.0 0 0 297.01 513.75
  L 297.01 504.23
  A 1.23 1.23 0.0 0 0 295.78 503.00
  Z
  M 418.32 503.05
  L 374.36 502.97
  A 1.56 1.56 0.0 0 0 372.80 504.53
  L 372.78 513.81
  A 23.30 23.25 -89.9 0 0 395.99 537.15
  L 396.57 537.15
  A 23.30 23.25 -89.9 0 0 419.86 513.89
  L 419.88 504.61
  A 1.56 1.56 0.0 0 0 418.32 503.05
  Z
  M 540.65 503.01
  L 497.39 503.01
  A 1.50 1.50 0.0 0 0 495.89 504.51
  L 495.89 514.39
  A 22.72 22.72 0.0 0 0 518.61 537.11
  L 519.43 537.11
  A 22.72 22.72 0.0 0 0 542.15 514.39
  L 542.15 504.51
  A 1.50 1.50 0.0 0 0 540.65 503.01
  Z"
/>
</svg>
